<?xml version="1.0" encoding="utf-8"?>
<!-- Generator: Adobe Illustrator 26.0.0, SVG Export Plug-In . SVG Version: 6.00 Build 0)  -->
<svg version="1.1" id="Layer_1" xmlns="http://www.w3.org/2000/svg" xmlns:xlink="http://www.w3.org/1999/xlink" x="0px" y="0px"
	 viewBox="0 0 508 228" style="enable-background:new 0 0 508 228;" xml:space="preserve">
<style type="text/css">
	.st0{fill:#F7F7F7;}
	.st1{fill:#E9EAE8;}
</style>
<g>
	<path class="st0" d="M71.3,177.6c6.9-1.4,13.4-2.6,19.9-3.9c-0.1-1-0.9-0.7-1.4-0.9c-2.9-1-7.3,0.4-8.5-2.1
		c-0.8-1.6,2.4-5.1,3.9-7.6c4.6-8.2,9.3-16.4,14.2-25c-3.1,0-5.5,0-8.9,0c5.2-8,10.1-15.4,14.9-22.9c-1.9-1.6-4.3,0.2-6.5-1.3
		c4.2-7.8,8.3-15.7,12.4-23.5c-1.3-1.4-3.1-0.1-4.6-1.3c2.3-4,4.6-7.9,6.8-11.9c0.8-1.5,1.4-2.2,2.7-0.4c2.8,3.8,5.8,7.6,8.8,11.5
		c-5.4,1.1-6,2.6-2.9,7.2c4.1,6,8.3,11.9,12.6,18c-2.2,1.4-4.7,0-7.2,1.3c2.6,3.9,5,7.7,7.9,12c3.3-6.3,6.2-12,9.5-18.2
		c-2.8,0-5.2,0-8.3,0c4.6-8.1,8.9-15.7,13.4-23.5c-1.9-0.1-3.4-0.2-5.8-0.2c4.7-7.9,9.1-15.5,13.9-23.5c-2.1-0.1-3.6-0.2-5.8-0.3
		c3.1-5,6.1-9.7,9.3-14.9c3.6,5.2,7,10,10.5,14.9c-1.4,1.8-3.6-0.1-5.4,1.7c4.3,7,8.7,14.3,13.3,22c-2.6,0.1-4.5,0.2-7,0.3
		c3.4,5.2,6.6,10,10,15c15.1-14.7,29.9-29.3,44.8-43.8c7.4-7.2,14.9-14.3,22.1-21.8c2.4-2.5,3.7-2.4,6.1,0.1
		c16.6,17.5,33.3,35,50.3,52.7c3.3-5.1,6.4-9.9,9.6-15c-1.8-1.6-4-0.1-6-1.4c4.3-7,8.6-14,12.9-21.1c-1.6-1.5-3.4-0.2-5.4-1.3
		c3.3-4.9,6.6-9.9,10.3-15.2c3.3,5.1,6.2,9.6,9.5,14.7c-2,0.2-3.7,0.4-6,0.6c4.7,7.8,9.2,15.2,13.9,23.1c-2,0.1-3.4,0.2-5.6,0.3
		c4.5,8,8.9,15.7,13.5,23.8c-2.9,0-5.3,0-8.5,0c4.8,7.5,9.2,14.4,14,21.9c2.7-4.3,5.3-8.2,8.1-12.6c-2.7,0-4.6,0-7.7,0
		c3.3-4.7,6.2-8.8,9.1-12.9c3.2-4.6,2.6-6.1-3.5-6.6c3.6-4.7,7-9.1,10.5-13.8c2.8,5,5.4,9.5,8.2,14.5c-1.8,0.1-3,0.2-5,0.4
		c4.6,7.7,9,15,13.6,22.8c-2.3,0.2-4.4,0.3-6.9,0.4c4.9,8.7,9.6,17,14.6,25.9c-3,0-5.4,0-8.8,0c7.8,11.4,15.1,22,22.4,32.7
		c-3.7,1.5-7.2,1.1-10.9,2.6c11,2.8,21.9,5.6,32.9,8.5c0,0.3,0,0.6,0,1c-3.7,0-7.4,0-11,0c-11.5,0-23-0.1-34.5,0.1
		c-3.1,0.1-5.3-0.9-7.5-3C340.7,138,298.9,98.6,257.2,59c-2.8-2.7-4.2-3.2-7.4-0.2c-41.6,39-83.3,77.8-124.9,116.7
		c-2.4,2.2-4.7,3.1-7.9,3.1c-14-0.1-28,0.1-42,0.1C73.9,178.7,72.7,179.2,71.3,177.6z"/>
	<path class="st1" d="M252.9,192.6c79.1,0,158.2,0,237.4,0c2.7,0,4.6-0.2,4.6,3.7c0,3.8-1.9,3.8-4.6,3.8c-158.1,0-316.2,0-474.2,0
		c-3,0-4.9,0-4.9-4c0.1-4,2.2-3.5,4.8-3.5C95,192.6,174,192.6,252.9,192.6z"/>
	<path class="st1" d="M158.1,154.8c2.3-2.1,4.7-4.1,6.9-6.3c28.4-28.1,56.9-56.1,85.2-84.3c2.5-2.5,3.7-3,6.5-0.2
		c30.2,30.8,60.5,61.4,90.9,92.1c0.7,0.7,1.2,1.4,1.3,2.7c-3.9-3.4-7.8-6.8-11.7-10.2c-16.7-14.9-33.3-30-50-44.9
		c-10.4-9.3-21-18.3-31.4-27.6c-1.8-1.6-2.7-1.5-4.4,0c-14.7,12.9-29.5,25.7-44.4,38.4C191,128.3,175,142,159.1,155.7
		C158.7,155.4,158.4,155.1,158.1,154.8z"/>
	<path class="st0" d="M258.3,166c0-4-1.5-9.1,0.4-11.6c2.1-2.6,7.5-0.7,11.4-0.8c8.8-0.1,8.8,0,8.8,8.7c0,4.3-0.1,8.7,0,13
		c0.1,2.4-0.4,3.7-3.2,3.5c-5-0.2-10-0.1-15,0c-2.2,0.1-2.9-0.7-2.8-2.9c0.1-3.3,0-6.7,0-10C258,166,258.1,166,258.3,166z"/>
	<path class="st0" d="M249.3,167c-0.7,3.3,2,8.7-1.1,11.1c-2.5,1.9-7.6,0.6-11.6,0.6c-6.8,0-6.8,0-6.8-6.8c0-5,0.1-10-0.1-14.9
		c-0.1-2.4,0.4-3.6,3.2-3.4c4.5,0.2,9,0.1,13.4,0c2.1-0.1,3,0.6,2.9,2.8C249.2,159.7,249.3,163,249.3,167z"/>
	<path class="st0" d="M268.4,144.9c-10.5,0-10.5,0-10.5-10.7c0-3.8,0.1-7.6,0-11.4c-0.1-2.7,0.5-3.5,3.4-2.8
		c9,2.3,17.3,12.6,17.7,21.9c0.1,2.5-0.7,3.2-3.1,3.1C273.4,144.8,270.9,144.9,268.4,144.9z"/>
	<path class="st0" d="M249.3,132.8c-0.5,3.4,1.9,8.9-0.9,11.3c-2.3,2-7.6,0.7-11.6,0.7c-8,0.1-8.5-0.7-6-8.4
		c2.5-7.5,7.5-12.8,14.8-15.8c3-1.3,3.8-0.4,3.6,2.6C249.1,126.2,249.3,129.2,249.3,132.8z"/>
</g>
</svg>
